<svg width="500" height="500" xmlns="http://www.w3.org/2000/svg">

 <g>
  <title>Layer 1</title>
  <ellipse ry="240" rx="240" id="svg_13" cy="250" cx="250" stroke="#fff" fill="#334155"/>
  <ellipse stroke-width="0" stroke="#334155" ry="220" rx="220" id="svg_15" cy="250" cx="250" fill="#ffffff"/>
  <ellipse ry="190" rx="190" id="svg_16" cy="250" cx="250" stroke="#fff" fill="#334155"/>
  <ellipse ry="170" rx="170" id="svg_17" cy="250" cx="250" stroke="#fff" fill="#ffffff"/>
  <path id="svg_19" d="m186,250l27.42858,-58.5l73.14287,0l27.42857,58.5l-27.42857,58.5l-73.14287,0l-27.42858,-58.5z" stroke="#fff" fill="#334155"/>
  <rect transform="rotate(90, 315.5, 303)" id="svg_26" height="200" width="10" y="203" x="310.49999" stroke="#334155" fill="#334155"/>
  <rect transform="rotate(-25, 265.665, 160.5)" id="svg_27" height="200" width="10" y="60.50005" x="260.66499" stroke="#334155" fill="#334155"/>
  <rect transform="rotate(-25, 235.165, 340)" id="svg_28" height="200" width="10" y="239.99986" x="230.16503" stroke="#334155" fill="#334155"/>
  <rect transform="rotate(25, 174.665, 289)" id="svg_29" height="200" width="10" y="188.99992" x="169.66509" stroke="#334155" fill="#334155"/>
  <rect transform="rotate(25, 325, 211.5)" id="svg_30" height="200" width="10" y="111.5" x="320" stroke="#334155" fill="#334155"/>
  <rect transform="rotate(90, 176, 197)" id="svg_31" height="200" width="10" y="97" x="171" stroke="#334155" fill="#334155"/>
 </g>
</svg>