<?xml version="1.0" standalone="no"?>
<!DOCTYPE svg PUBLIC "-//W3C//DTD SVG 20010904//EN"
 "http://www.w3.org/TR/2001/REC-SVG-20010904/DTD/svg10.dtd">
<svg version="1.0" xmlns="http://www.w3.org/2000/svg"
 width="700.000000pt" height="700.000000pt" viewBox="0 0 700.000000 700.000000"
 preserveAspectRatio="xMidYMid meet">
<metadata>
Created by potrace 1.14, written by Peter Selinger 2001-2017
</metadata>
<g transform="translate(0.000000,700.000000) scale(0.100000,-0.100000)"
fill="#000000" stroke="none">
<path d="M3330 6854 c-717 -43 -1376 -295 -1935 -740 -146 -116 -418 -391
-529 -534 -397 -513 -624 -1064 -702 -1705 -23 -190 -23 -560 0 -750 79 -650
319 -1225 722 -1730 113 -142 368 -397 509 -509 508 -404 1080 -643 1730 -722
190 -23 560 -23 750 0 650 79 1228 320 1730 722 143 115 398 370 509 509 405
510 643 1081 722 1730 23 190 23 560 0 750 -79 649 -318 1223 -722 1730 -116
146 -391 418 -534 529 -512 396 -1076 629 -1700 700 -139 16 -435 27 -550 20z
m521 -299 c355 -40 678 -135 1004 -295 956 -471 1586 -1375 1706 -2450 15
-135 15 -485 0 -620 -85 -765 -414 -1423 -972 -1946 -470 -440 -1079 -720
-1739 -800 -161 -19 -507 -22 -660 -5 -677 76 -1301 356 -1768 795 -573 538
-897 1183 -983 1956 -17 151 -14 499 5 656 56 466 208 903 446 1282 381 607
969 1069 1641 1291 430 141 868 187 1320 136z"/>
<path d="M3355 6154 c-572 -44 -1040 -218 -1478 -551 -131 -100 -380 -349
-480 -480 -368 -484 -550 -1022 -550 -1623 0 -436 91 -821 284 -1201 131 -257
278 -459 494 -674 228 -228 430 -374 710 -510 180 -88 303 -134 478 -180 812
-213 1639 -48 2310 462 131 100 380 349 480 480 300 395 478 834 538 1328 16
129 16 461 0 590 -60 494 -238 933 -538 1328 -105 138 -352 383 -493 489 -386
291 -801 461 -1274 523 -114 15 -392 26 -481 19z m403 -285 c260 -28 549 -112
788 -229 146 -72 373 -216 457 -292 l49 -43 -373 -797 c-204 -439 -375 -798
-378 -798 -10 0 -1011 2152 -1005 2162 7 12 346 10 462 -3z m-287 -774 c193
-412 353 -756 356 -762 4 -10 -256 -13 -1280 -13 l-1285 0 20 53 c40 107 149
316 227 432 105 158 169 238 299 369 274 277 597 477 969 596 121 39 290 80
321 77 20 -2 66 -94 373 -752z m1770 31 c346 -370 574 -866 628 -1368 30 -271
-2 -675 -70 -885 l-11 -33 -849 0 c-467 0 -849 3 -849 8 0 4 69 156 153 337
85 182 329 707 543 1167 214 461 390 838 392 838 1 0 30 -29 63 -64z m-2331
-973 c0 -5 -67 -152 -149 -328 -82 -176 -319 -684 -526 -1130 -208 -445 -386
-827 -396 -848 l-20 -37 -62 66 c-312 333 -527 767 -607 1224 -28 158 -38 476
-21 641 13 125 42 287 66 367 l16 52 849 0 c468 0 850 -3 850 -7z m-55 -1178
c516 -1088 863 -1840 852 -1847 -18 -11 -354 -9 -465 3 -313 34 -658 146 -926
302 -116 68 -264 170 -327 226 l-41 36 373 802 c206 441 377 799 381 795 3 -4
73 -146 153 -317z m2863 -347 c-65 -176 -227 -454 -362 -623 -276 -344 -680
-624 -1101 -763 -167 -55 -352 -99 -365 -86 -6 7 -688 1464 -707 1512 -4 9
255 12 1275 12 l1280 0 -20 -52z"/>
</g>
</svg>
